<?xml version="1.0" encoding="UTF-8"?>
<svg id="Layer_1" data-name="Layer 1" xmlns="http://www.w3.org/2000/svg" viewBox="0 0 921 165.35">
  <defs>
    <style>
      .cls-1 {
        fill: #FFF;
        stroke-width: 0px;
      }
    </style>
  </defs>
  <path class="cls-1" d="M351.34,135.96c1.91-7.62,3.69-14.72,5.46-21.82,2.29-9.23,4.72-18.44,6.76-27.73.7-3.21.67-6.65.47-9.96-.24-4.11-3.69-7.37-7.82-7.8-3.74-.39-7.46-.11-11.06,1.1-7.19,2.41-13.44,6.4-19.07,11.43-1.48,1.32-2.46,2.87-2.94,4.85-2.12,8.62-4.35,17.2-6.5,25.81-1.68,6.74-3.31,13.48-4.94,20.23-.21.85-.25,1.74-.36,2.55,2.31,2.72,6.04,1.65,8.48,3.54-.49,3.94-2.18,5.95-5.62,5.99-9.39.09-18.79,0-28.18-.05-.23,0-.46-.2-.68-.31,0-3.21.83-4.51,3.91-5.61,2.29-.81,4.64-1.45,7.18-2.23.73-2.51,1.53-4.93,2.15-7.41,3.46-13.85,6.93-27.69,10.25-41.57.83-3.48,1.44-7.03.55-10.68-1.17-4.79-4.3-7.48-9.23-7.75-7.4-.4-13.84,2.39-20.09,5.86-.22.12-.43.28-.65.42-9.27,5.85-10.03,6.98-12.63,17.54-2.86,11.61-5.81,23.2-8.69,34.8-.61,2.48-1.09,4.99-1.61,7.41,2.44,2.67,6.09,1.84,8.55,3.69-.4,3.69-2.06,5.81-5.31,5.85-9.91.11-19.82-.01-29.72-.06-.22,0-.44-.23-.82-.44-.44-2.52,1.11-4.01,3.09-5.03,1.47-.76,3.15-1.09,4.72-1.66,1.68-.61,3.33-1.27,5.2-1.99,5.34-21.4,10.64-42.67,16.06-64.41-3.27-.87-6.07-1.61-8.84-2.35q-1.23-2.4-.07-5.17c5.58-.48,11.16-2.21,17.02-1.81,4.19.29,5.61,1.58,5.4,5.74-.11,2.29-.76,4.54-1.16,6.82-.17.96-.3,1.93-.55,3.51,1.31-.5,2.17-.64,2.8-1.1,3.01-2.2,5.89-4.57,8.93-6.73,7.79-5.54,16.48-8.91,25.93-10.32,3.83-.57,7.53.09,10.85,1.92,4.09,2.25,5.62,6.22,5.81,10.68.14,3.25.04,3.25,1.36,5.32,2.55-1.92,5.06-3.86,7.62-5.73,8.45-6.15,17.7-10.45,28.09-12.12,3.26-.52,6.44-.26,9.51.85,5.52,1.99,7.89,6.27,8.26,11.88.31,4.66-.23,9.28-1.33,13.77-3.48,14.24-7.14,28.43-10.69,42.66-.49,1.96-.74,3.98-1.18,6.4,3.47,1.15,6.69,2.23,9.86,3.28-.85,4.14-2.63,6.07-6.02,6.1-9.65.1-19.31.03-28.96,0-.35,0-.69-.25-1.19-.44.31-3.26,2.12-5.09,5.16-5.92,2.09-.56,4.16-1.17,6.5-1.84Z"/>
  <path class="cls-1" d="M419.2,135.18c3.36,1.11,6.12,2.02,8.84,2.92-.39,3.82-2.07,5.98-5.3,6.02-9.91.11-19.82,0-29.73-.06-.22,0-.44-.22-.82-.43-.45-2.53,1.1-4.02,3.09-5.05,1.47-.76,3.15-1.09,4.72-1.66,1.68-.61,3.33-1.27,5.13-1.97,5.39-21.43,10.82-42.69,16.03-64.4-1.86-.52-3.29-.93-4.74-1.31-1.36-.36-2.73-.68-4.59-1.13-.15-1.47-.3-3-.48-4.8,6.65-1.04,12.76-2.62,19.11-2.01,2.81.27,4.32,1.69,4.25,4.51-.06,2.67-.72,5.32-1.12,7.98-.14.96-.28,1.93-.51,3.51,1.32-.52,2.17-.68,2.8-1.14,3.01-2.2,5.88-4.58,8.93-6.72,7.81-5.49,16.45-8.98,25.93-10.31,3.56-.5,6.98.08,10.15,1.62,4.54,2.21,6.2,6.29,6.48,11.07.19,3.22.15,3.22,1.37,5.23,2.46-1.86,4.88-3.73,7.35-5.53,8.44-6.15,17.61-10.64,28.04-12.2,1.39-.21,2.82-.4,4.22-.31,7.88.53,13.49,4.03,13.76,13.43.12,4.2-.21,8.54-1.14,12.63-3.06,13.42-6.48,26.76-9.78,40.12-.55,2.24-1.24,4.46-1.77,6.71-.2.84-.13,1.74-.2,3.04,3.3,1.08,6.51,2.13,9.69,3.17-1.08,4.26-2.79,6.03-6.2,6.06-9.66.08-19.31,0-28.97-.02-.23,0-.47-.17-1.03-.39.1-2.6,1.38-4.43,3.79-5.49,1.05-.46,2.19-.85,3.32-.96,3.55-.36,4.96-2.54,5.68-5.77,1.35-6.02,2.97-11.98,4.45-17.97,2.22-8.99,4.59-17.95,6.56-26.99.7-3.21.7-6.65.53-9.96-.23-4.39-3.95-7.63-8.49-8.02-5.98-.51-11.48,1.12-16.72,3.79-4.49,2.29-8.66,5.06-12.41,8.45-1.67,1.51-2.83,3.22-3.38,5.46-2.05,8.37-4.24,16.71-6.32,25.07-1.74,6.99-3.42,13.99-5.1,20.99-.18.73-.2,1.5-.29,2.19,2.15,3.1,6.22,1.67,8.62,3.86-1.1,4.23-2.53,5.74-6.06,5.77-9.14.08-18.28.01-27.43-.01-.37,0-.73-.18-1.08-.27-.15-3.2.7-4.58,3.78-5.68,2.29-.82,4.64-1.45,7.26-2.26.85-2.94,1.78-5.86,2.52-8.83,2.99-11.98,5.96-23.97,8.85-35.97.81-3.37,1.42-6.8,1.88-10.23.38-2.86-.13-5.66-1.73-8.15-1.72-2.68-4.2-3.97-7.4-4.23-5.04-.41-9.7.93-14.28,2.74-5.82,2.31-10.8,5.98-15.48,10.03-.91.79-1.68,2.02-1.98,3.19-3.23,12.71-6.35,25.45-9.51,38.19-.98,3.97-1.99,7.94-3.13,12.5Z"/>
  <path class="cls-1" d="M744.68,138.27c-1.01,3.65-2.9,5.82-6.28,5.87-8.62.12-17.25.02-25.87,0-.36,0-.72-.22-1.22-.39-.56-2.6.81-4.17,2.94-5.09,1.76-.76,3.65-1.24,5.52-1.68,2.12-.5,3.61-1.54,4.8-3.47,12.92-21.05,25.92-42.06,38.91-63.06,8.33-13.46,16.78-26.84,24.98-40.37,2.78-4.58,6.72-5.61,11.51-5.08.71.08,1.37.58,2.35,1.02,5.23,36.29,10.47,72.62,15.75,109.28,3.64.98,7.06,1.9,10.44,2.81-.1,3.03-2.15,5.49-4.9,6.03-.25.05-.51.06-.77.06-11.07-.01-22.14-.02-33.21-.06-.33,0-.66-.3-1.17-.54.58-2.76,2.02-4.68,4.76-5.45,1.73-.48,3.53-.74,5.25-1.25,1.42-.42,2.78-1.05,4.33-1.66-1.19-10.52-2.79-20.58-4.43-30.42-3.36-.86-41.06-1.12-47.47-.42-2.6,2.7-4.39,6.28-6.47,9.65-2.1,3.39-4.23,6.76-6.29,10.18-2.02,3.36-4.67,6.39-5.91,10.76,4.27,1.13,8.18,2.17,12.45,3.3ZM788.44,43.14c-11.14,17.92-21.89,35.2-32.89,52.89,1.42.36,2.23.7,3.05.75,10.5.65,34.85.19,38.09-.83,0-1.34.17-2.86-.03-4.34-.86-6.36-1.82-12.7-2.77-19.04-1.08-7.23-2.16-14.46-3.32-21.68-.38-2.33-.22-4.83-2.14-7.75Z"/>
  <path class="cls-1" d="M25.57,136.2c.62-1.78,1.16-3.46,1.79-5.1,2.1-5.53,4.2-11.06,6.38-16.57,1.49-3.76,3.67-4.83,8.39-3.97-.91,6.48-2.35,12.92-3.57,19.76,1.6.98,3.03,2.05,4.62,2.77,6.13,2.81,12.54,4.75,19.29,5.08,14.47.72,29.5-8.73,32.32-24.19,1.07-5.88-.71-10.61-5.14-14.5-4.8-4.21-10.56-6.83-16.07-9.9-4.94-2.75-9.81-5.63-14.53-8.73-2-1.31-3.69-3.2-5.26-5.04-4.78-5.61-5.15-12.31-3.7-19.01,3.28-15.12,12.54-25,27.29-29.72,13-4.16,25.66-2.41,38.14,2.23,2.04.76,3.99,1.78,5.97,2.7.46.22.88.55,1.53.96-2.85,7.72-5.19,15.25-8.7,22.78-1.74-.69-2.97-1.17-4.45-1.76.45-4.97.87-9.67,1.35-14.94-.84-.76-1.78-2.07-3.06-2.73-10.53-5.45-21.36-6.56-32.25-1.27-7,3.4-11.39,9.2-13.09,16.78-1.19,5.33-.17,10.24,4.06,14.14,5.37,4.96,11.8,8.18,18.3,11.34,6.36,3.1,12.52,6.5,17.8,11.39,5.99,5.56,7.7,12.38,6.26,20.04-3.26,17.34-13.93,28.31-30.34,33.79-10.75,3.59-21.72,3.24-32.75.78-6.18-1.38-12.25-2.94-17.99-5.64-.79-.37-1.51-.87-2.57-1.5Z"/>
  <path class="cls-1" d="M149.47,70.98c-3.25-.78-5.96-1.44-9.11-2.2-.1-1.49-.2-3.05-.33-4.95,5.56-.89,10.74-1.73,15.92-2.52.75-.11,1.55-.04,2.31.06,4.88.67,6.8,3.22,5.68,8.04-1.79,7.77-3.82,15.48-5.7,23.23-2.24,9.25-4.53,18.48-6.54,27.78-.5,2.3-.18,4.85.13,7.24.51,3.85,3.05,6.07,6.6,7.3,5.3,1.83,10.44.72,15.51-.91,4.58-1.48,8.58-4.07,12.35-7.03,1.78-1.4,2.76-3.14,3.32-5.43,3.52-14.49,7.23-28.94,10.86-43.41.53-2.1.92-4.24,1.45-6.72-1.19-.51-2.18-1.03-3.22-1.35-.98-.31-2.01-.43-3.02-.61-3.94-.71-4.39-1.63-2.56-5.73,4.76-.8,9.69-1.68,14.63-2.41,1.24-.18,2.59-.06,3.83.21,3.46.74,4.78,2.4,4.69,5.97-.04,1.66-.25,3.34-.65,4.95-4.61,18.6-9.27,37.18-13.92,55.77-.06.25-.13.5-.17.75-.96,4.99,1.44,7.43,6.45,6.47,2-.38,3.96-.95,6.02-1.45,1.03,1.95.58,3.45-.88,4.59-4.76,3.74-10.1,6.12-16.22,6.46-6.3.35-10.08-3.72-9.45-10.63.11-1.23.3-2.45.56-4.58-1.55.91-2.41,1.29-3.12,1.86-4.31,3.5-8.77,6.74-13.84,9.1-6.65,3.1-13.59,4.83-20.95,4.19-5.57-.48-10.2-2.68-12.42-8.29-.37-.94-.69-1.97-.75-2.97-.3-5.8-.15-11.53,1.33-17.23,3.08-11.82,5.93-23.7,8.88-35.56.47-1.87,1.03-3.72,1.49-5.6.29-1.22.47-2.46.83-4.4Z"/>
  <path class="cls-1" d="M613.98,95.28c1.44-5.45,2.99-10.36,3.96-15.38.57-2.98.53-6.18.19-9.21-.39-3.47-2.66-5.73-6.07-6.76-6.21-1.87-16.52.2-21.95,7.8-1.85,2.58-3.13,5.58-4.59,8.43-.52,1.01-.81,2.14-1.11,2.97-1.96,1.61-4,1.79-6.08,1.72-3.56-.11-5.4-2.48-4.48-5.95,1.12-4.2,3.36-7.79,6.65-10.64,3.53-3.06,7.54-5.35,11.95-6.93,7.36-2.63,14.94-3.78,22.74-3.18,2.29.18,4.62.54,6.81,1.22,6.35,1.97,9.56,6.58,9.91,13.64.26,5.21-.79,10.25-2.02,15.24-3.28,13.35-6.73,26.66-10.08,39.99-.28,1.12-.48,2.27-.59,3.42-.31,3.43,1.6,5.47,4.99,5.21,1.25-.1,2.48-.6,3.7-.98,1.32-.41,2.61-.88,3.94-1.34,1.14,2.01.46,3.34-.84,4.33-5.48,4.19-11.57,6.74-18.59,6.07-4.31-.41-6.4-3.1-6.66-7.56-.12-2.08.66-4.33-.92-6.56-.95.74-1.77,1.29-2.5,1.94-7.07,6.34-15.22,10.49-24.61,11.99-3.82.61-7.67.67-11.47-.42-7.1-2.04-10.81-7.76-9.54-14.97,1.51-8.52,5.86-15.26,12.96-20.21,5.35-3.73,11.35-6.07,17.62-7.59,7.61-1.84,15.33-3.29,22.98-4.96,1.22-.27,2.37-.84,3.7-1.33ZM612.42,101.43c-.92-.19-1.43-.45-1.87-.36-8.44,1.67-17.03,2.82-25.08,6-7.98,3.15-13.02,8.95-14.47,17.6-1.21,7.21,2.83,12.19,10.11,12.26,9.21.09,16.97-3.62,23.74-9.55,1.17-1.02,1.99-2.7,2.43-4.23,1.44-4.93,2.67-9.93,3.88-14.92.53-2.19.83-4.44,1.25-6.79Z"/>
  <path class="cls-1" d="M881.11,37.41c-3.44-2.87-7.55-1.95-10.7-4.04-.56-3.73,2.18-5.41,4.43-7.38h35.44c.01,3.96-1.4,6.04-4.72,7.06-2.21.68-4.42,1.4-6.68,1.88-2.49.53-3.6,2.03-4.18,4.41-2.8,11.62-5.71,23.21-8.58,34.81-3.17,12.84-6.34,25.69-9.51,38.53-1.57,6.35-3.17,12.7-4.72,19.06-.23.96-.25,1.97-.37,2.93,3.35,2.43,7.38,1.97,10.72,3.45-.14,3.33-1.88,5.49-4.76,5.99-.63.11-1.28.09-1.92.09-10.42,0-20.84.01-31.26,0-.73,0-1.46-.17-2.33-.28.92-3.55,2.95-5.47,6.34-6.13,2.62-.51,5.2-1.26,8.19-2.01,8.21-32.82,16.39-65.54,24.6-98.38Z"/>
  <path class="cls-1" d="M673.1,134.85c3.83,1.04,7.48,2.03,11.05,3,.51,2.78-.68,4.35-2.62,5.37-.99.52-2.18.92-3.29.93-10.55.04-21.1,0-31.64-.04-.23,0-.47-.18-.7-.28-.56-2.68-.03-4.07,2.33-5.19,1.5-.71,3.16-1.08,4.73-1.63,1.68-.59,3.34-1.22,5.31-1.94,5.16-20.61,10.3-41.15,15.41-61.69.18-.7.02-1.49.02-2.57-2.88-.78-5.68-1.55-8.81-2.4-.09-1.43-.18-2.78-.26-4.15.73-.44,1.24-.98,1.81-1.06,4.95-.7,9.9-1.62,14.88-1.88,5.33-.28,7.49,2.67,6.36,7.85-.47,2.14-1.02,4.25-1.43,6.4-.13.68.08,1.43.21,3,1.48-1.43,2.48-2.31,3.39-3.27,6.92-7.3,14.73-13.16,24.67-15.78,3.13-.83,6.13-.58,9.1.41,2.94.98,4.62,3.38,4.68,6.4.11,4.96-3.46,9.6-8.79,11.15-.49-.75-1.09-1.54-1.57-2.4-2.57-4.62-6.87-6.49-12-5.1-4.8,1.3-8.92,3.91-12.85,6.86-.82.62-1.58,1.33-2.41,1.93-4,2.91-6.3,6.58-7.34,11.65-2.11,10.31-5.04,20.46-7.61,30.68-.91,3.62-1.78,7.24-2.6,10.88-.16.72-.02,1.5-.02,2.89Z"/>
</svg>